<svg version="1.2" xmlns="http://www.w3.org/2000/svg" viewBox="0 0 24 24" width="24" height="24">
	<title>angle-small-up-svg</title>
	<style>
		.s0 { fill: #494747 } 
	</style>
	<path id="Layer" class="s0" d="m18 15.5q-0.1 0-0.2 0-0.1 0-0.2-0.1-0.1 0-0.2-0.1 0 0-0.1-0.1l-4.6-4.6q-0.1-0.1-0.3-0.2-0.2-0.1-0.4-0.1-0.2 0-0.4 0.1-0.2 0.1-0.3 0.2l-4.6 4.6q-0.3 0.3-0.7 0.3-0.4 0-0.7-0.3-0.3-0.3-0.3-0.7 0-0.4 0.3-0.7l4.6-4.6q0.4-0.4 1-0.6 0.5-0.2 1.1-0.2 0.6 0 1.1 0.2 0.6 0.2 1 0.6l4.6 4.6q0.2 0.1 0.2 0.3 0.1 0.2 0.1 0.4 0 0.2-0.1 0.4 0 0.2-0.2 0.3-0.1 0.1-0.1 0.1-0.1 0.1-0.2 0.1-0.1 0.1-0.2 0.1-0.1 0-0.2 0z"/>
</svg>