<svg version="1.2" xmlns="http://www.w3.org/2000/svg" viewBox="0 0 25 25" width="25" height="25">
	<title>cross-svgrepo-com-svg</title>
	<style>
		.s0 { fill: #ffffff } 
	</style>
	<g id="Page-1">
		<g id="Icon-Set-Filled">
			<path id="cross" fill-rule="evenodd" class="s0" d="m18.1 12.5l5.7-5.7c1.6-1.5 1.6-4.1 0-5.6-1.6-1.6-4.1-1.6-5.7 0l-5.6 5.6-5.7-5.6c-1.5-1.6-4.1-1.6-5.6 0-1.6 1.5-1.6 4.1 0 5.6l5.6 5.7-5.6 5.7c-1.6 1.5-1.6 4 0 5.6 1.5 1.6 4.1 1.6 5.6 0l5.7-5.6 5.6 5.6c1.6 1.6 4.1 1.6 5.7 0 1.6-1.5 1.6-4.1 0-5.6z"/>
		</g>
	</g>
</svg>